<?xml version="1.0" encoding="UTF-8" standalone="no"?>
<svg
   x="0"
   y="0"
   width="205.91107"
   height="30.86614"
   filtersec="colorsb6207690711"
   class="image-svg-svg primary"
   style="overflow:visible"
   version="1.1"
   id="svg12"
   sodipodi:docname="logo_doc.svg"
   inkscape:version="1.2 (dc2aedaf03, 2022-05-15)"
   xmlns:inkscape="http://www.inkscape.org/namespaces/inkscape"
   xmlns:sodipodi="http://sodipodi.sourceforge.net/DTD/sodipodi-0.dtd"
   xmlns="http://www.w3.org/2000/svg"
   xmlns:svg="http://www.w3.org/2000/svg">
  <defs
     id="defs16" />
  <sodipodi:namedview
     id="namedview14"
     pagecolor="#ffffff"
     bordercolor="#000000"
     borderopacity="0.25"
     inkscape:showpageshadow="2"
     inkscape:pageopacity="0.0"
     inkscape:pagecheckerboard="0"
     inkscape:deskcolor="#d1d1d1"
     showgrid="false"
     inkscape:zoom="3.3896364"
     inkscape:cx="88.947593"
     inkscape:cy="-13.865794"
     inkscape:window-width="1920"
     inkscape:window-height="1017"
     inkscape:window-x="-8"
     inkscape:window-y="-8"
     inkscape:window-maximized="1"
     inkscape:current-layer="text289" />
  <path
     fill="#c71343"
     d="M 30.866141,30.866141 H 0 V 0 Z"
     id="path4"
     style="fill:#e11d48;fill-opacity:1;stroke-width:0.242201" />
  <path
     fill="#4195d2"
     d="M 15.760042,0 H 30.868563 V 30.793481 H 15.760042 Z"
     id="path6"
     style="fill:#22d3ee;fill-opacity:1;stroke-width:0.242201" />
  <path
     fill="#00234b"
     d="M 15.760042,15.760042 V 30.866141 H 30.866141 Z"
     id="path8"
     style="stroke-width:0.242201" />
  <g
     aria-label="NeonLink"
     id="text289"
     style="font-size:39.678px;font-family:Raleway;-inkscape-font-specification:'Raleway, Normal';stroke-width:3.30648">
    <path
       d="M 36.287608,7.0623747 V 30.115294 h -2.77746 V 1.9439125 h 2.301324 L 54.30142,25.433289 V 1.9835905 h 2.777461 V 30.115294 H 54.49981 Z"
       id="path291" />
    <path
       d="m 72.196198,30.512074 q -2.221969,0 -4.126513,-0.833239 -1.904544,-0.872916 -3.293274,-2.341002 -1.38873,-1.507764 -2.18229,-3.451986 -0.753882,-1.944222 -0.753882,-4.16619 0,-2.896494 1.309374,-5.316852 1.349052,-2.420358 3.690054,-3.848766 2.341002,-1.4680862 5.316853,-1.4680862 3.055206,0 5.316852,1.4680862 2.301324,1.468086 3.610698,3.888444 1.309374,2.38068 1.309374,5.237496 0,0.317424 0,0.634848 0,0.277746 -0.03968,0.436458 H 64.657377 q 0.19839,2.221968 1.230018,3.9678 1.071306,1.706154 2.737782,2.737782 1.706154,0.99195 3.690055,0.99195 2.023578,0 3.809088,-1.031628 1.825188,-1.031628 2.539392,-2.698104 l 2.341002,0.634848 q -0.634848,1.468086 -1.944222,2.658426 -1.309374,1.19034 -3.094884,1.864866 -1.745832,0.634849 -3.76941,0.634849 z M 64.578021,18.807063 h 15.276031 q -0.158712,-2.261646 -1.230018,-3.9678 -1.031628,-1.706154 -2.737782,-2.658426 -1.666476,-0.99195 -3.690054,-0.99195 -2.023579,0 -3.690055,0.99195 -1.666476,0.952272 -2.737782,2.698104 -1.031628,1.706154 -1.19034,3.928122 z"
       id="path293" />
    <path
       d="m 95.368145,30.512074 q -2.221968,0 -4.126512,-0.833239 -1.864866,-0.872916 -3.253596,-2.341002 -1.349053,-1.507764 -2.102935,-3.412308 -0.753882,-1.944222 -0.753882,-4.086834 0,-2.221968 0.753882,-4.126512 0.753882,-1.944222 2.142613,-3.412308 1.38873,-1.507764 3.253596,-2.3410022 1.904544,-0.872916 4.126512,-0.872916 2.221968,0 4.086834,0.872916 1.864863,0.8332382 3.253593,2.3410022 1.38873,1.468086 2.14262,3.412308 0.75388,1.904544 0.75388,4.126512 0,2.142612 -0.75388,4.086834 -0.75389,1.904544 -2.14262,3.412308 -1.34905,1.468086 -3.253593,2.341002 -1.864866,0.833239 -4.126512,0.833239 z M 87.869003,19.878369 q 0,2.301324 0.99195,4.205868 1.031628,1.864866 2.737782,2.97585 1.706154,1.071306 3.76941,1.071306 2.063256,0 3.76941,-1.110984 1.706155,-1.110984 2.737785,-3.015528 1.03163,-1.944222 1.03163,-4.205868 0,-2.301324 -1.03163,-4.205868 -1.03163,-1.904544 -2.737785,-3.015528 -1.706154,-1.110984 -3.76941,-1.110984 -2.063256,0 -3.76941,1.150662 -1.666476,1.150662 -2.698104,3.055206 -1.031628,1.864866 -1.031628,4.205868 z"
       id="path295" />
    <path
       d="m 127.54698,30.115294 h -2.69811 V 18.568995 q 0,-3.650376 -1.0713,-5.316852 -1.07131,-1.706154 -3.37263,-1.706154 -1.58712,0 -3.13457,0.79356 -1.54744,0.753882 -2.73778,2.102934 -1.15066,1.309374 -1.66647,3.015528 v 12.657283 h -2.69811 V 9.4430548 h 2.46004 v 4.6820042 q 0.83324,-1.507764 2.18229,-2.618748 1.34905,-1.150662 3.0552,-1.7855102 1.70616,-0.634848 3.53135,-0.634848 1.70615,0 2.89649,0.634848 1.19034,0.6348482 1.90454,1.8251882 0.71421,1.150662 1.03163,2.817138 0.31743,1.626798 0.31743,3.650376 z"
       id="path297" />
    <path
       d="M 133.85579,30.115294 V 1.9439125 h 2.77746 V 27.655257 h 16.26798 v 2.460037 z"
       id="path299" />
    <path
       d="M 156.43258,30.115294 V 9.4430548 h 2.6981 V 30.115294 Z m 0,-24.9971414 V 1.1503525 h 2.6981 v 3.9678001 z"
       id="path301" />
    <path
       d="m 182.46137,30.115294 h -2.69811 V 18.568995 q 0,-3.650376 -1.0713,-5.316852 -1.07131,-1.706154 -3.37263,-1.706154 -1.58712,0 -3.13457,0.79356 -1.54744,0.753882 -2.73778,2.102934 -1.15066,1.309374 -1.66647,3.015528 V 30.115294 H 165.0824 V 9.4430548 h 2.46004 v 4.6820042 q 0.83324,-1.507764 2.18229,-2.618748 1.34905,-1.150662 3.0552,-1.7855102 1.70616,-0.634848 3.53135,-0.634848 1.70615,0 2.89649,0.634848 1.19034,0.6348482 1.90454,1.8251882 0.71421,1.150662 1.03163,2.817138 0.31743,1.626798 0.31743,3.650376 z"
       id="path303" />
    <path
       d="m 202.9749,30.115294 -7.65786,-10.594027 -4.40426,4.126512 v 6.467515 h -2.6981 V 1.1503525 h 2.6981 V 20.751285 L 202.6178,9.4827328 h 2.97585 l -8.45142,8.4514142 8.76884,12.181147 z"
       id="path305" />
  </g>
</svg>
